<mxfile host="app.diagrams.net" agent="Mozilla/5.0 (Windows NT 10.0; Win64; x64) AppleWebKit/537.36 (KHTML, like Gecko) Chrome/131.0.0.0 Safari/537.36" version="26.0.3">
  <diagram name="Page-1" id="YKID6LpscDEnTGNGtqoE">
    <mxGraphModel dx="1816" dy="509" grid="1" gridSize="10" guides="1" tooltips="1" connect="1" arrows="1" fold="1" page="1" pageScale="1" pageWidth="827" pageHeight="1169" math="0" shadow="0">
      <root>
        <mxCell id="0" />
        <mxCell id="1" parent="0" />
        <mxCell id="1rp_JtK8VTmY53sCuVcj-62" value="" style="rounded=0;whiteSpace=wrap;html=1;dashed=1;dashPattern=8 8;strokeColor=#FF9933;" vertex="1" parent="1">
          <mxGeometry x="470" y="60" width="670" height="640" as="geometry" />
        </mxCell>
        <mxCell id="1rp_JtK8VTmY53sCuVcj-60" value="" style="rounded=0;whiteSpace=wrap;html=1;dashed=1;dashPattern=8 8;strokeColor=#0066CC;" vertex="1" parent="1">
          <mxGeometry x="-290" y="60" width="700" height="640" as="geometry" />
        </mxCell>
        <mxCell id="1rp_JtK8VTmY53sCuVcj-35" style="edgeStyle=orthogonalEdgeStyle;rounded=0;orthogonalLoop=1;jettySize=auto;html=1;entryX=0;entryY=0.5;entryDx=0;entryDy=0;exitX=1;exitY=0.5;exitDx=0;exitDy=0;" edge="1" parent="1" source="1rp_JtK8VTmY53sCuVcj-2" target="1rp_JtK8VTmY53sCuVcj-10">
          <mxGeometry relative="1" as="geometry">
            <Array as="points">
              <mxPoint x="10" y="300" />
              <mxPoint x="10" y="220" />
            </Array>
          </mxGeometry>
        </mxCell>
        <mxCell id="1rp_JtK8VTmY53sCuVcj-36" value="&lt;font style=&quot;font-size: 8px;&quot;&gt;Step1 Draw PO&lt;/font&gt;" style="edgeLabel;html=1;align=center;verticalAlign=middle;resizable=0;points=[];" vertex="1" connectable="0" parent="1rp_JtK8VTmY53sCuVcj-35">
          <mxGeometry x="0.0924" y="-2" relative="1" as="geometry">
            <mxPoint x="-92" y="-2" as="offset" />
          </mxGeometry>
        </mxCell>
        <mxCell id="1rp_JtK8VTmY53sCuVcj-118" style="edgeStyle=orthogonalEdgeStyle;rounded=0;orthogonalLoop=1;jettySize=auto;html=1;" edge="1" parent="1" source="1rp_JtK8VTmY53sCuVcj-2" target="1rp_JtK8VTmY53sCuVcj-9">
          <mxGeometry relative="1" as="geometry" />
        </mxCell>
        <mxCell id="1rp_JtK8VTmY53sCuVcj-119" value="&lt;font style=&quot;font-size: 8px;&quot;&gt;Step 3 Create PO Commodities(Include ink po to shipment)&lt;/font&gt;" style="edgeLabel;html=1;align=center;verticalAlign=middle;resizable=0;points=[];" vertex="1" connectable="0" parent="1rp_JtK8VTmY53sCuVcj-118">
          <mxGeometry x="-0.022" y="-2" relative="1" as="geometry">
            <mxPoint x="7" y="-3" as="offset" />
          </mxGeometry>
        </mxCell>
        <mxCell id="1rp_JtK8VTmY53sCuVcj-121" value="" style="edgeStyle=orthogonalEdgeStyle;rounded=0;orthogonalLoop=1;jettySize=auto;html=1;" edge="1" parent="1" source="1rp_JtK8VTmY53sCuVcj-2" target="1rp_JtK8VTmY53sCuVcj-120">
          <mxGeometry relative="1" as="geometry" />
        </mxCell>
        <mxCell id="1rp_JtK8VTmY53sCuVcj-123" value="&lt;font style=&quot;font-size: 8px;&quot;&gt;step 4 cancel commodity&lt;/font&gt;" style="edgeLabel;html=1;align=center;verticalAlign=middle;resizable=0;points=[];" vertex="1" connectable="0" parent="1rp_JtK8VTmY53sCuVcj-121">
          <mxGeometry x="-0.3143" y="2" relative="1" as="geometry">
            <mxPoint as="offset" />
          </mxGeometry>
        </mxCell>
        <mxCell id="1rp_JtK8VTmY53sCuVcj-2" value="&lt;font style=&quot;font-size: 8px;&quot;&gt;GF.OrderEntry.UI.API&lt;/font&gt;" style="rounded=1;whiteSpace=wrap;html=1;fillColor=#ffe6cc;strokeColor=#d79b00;" vertex="1" parent="1">
          <mxGeometry x="-130" y="270" width="120" height="60" as="geometry" />
        </mxCell>
        <mxCell id="1rp_JtK8VTmY53sCuVcj-22" style="edgeStyle=orthogonalEdgeStyle;rounded=0;orthogonalLoop=1;jettySize=auto;html=1;entryX=0;entryY=0.5;entryDx=0;entryDy=0;" edge="1" parent="1" source="1rp_JtK8VTmY53sCuVcj-9" target="1rp_JtK8VTmY53sCuVcj-10">
          <mxGeometry relative="1" as="geometry" />
        </mxCell>
        <mxCell id="1rp_JtK8VTmY53sCuVcj-64" value="&lt;font style=&quot;font-size: 8px;&quot;&gt;Link PO 2 Shipment&lt;/font&gt;" style="edgeLabel;html=1;align=center;verticalAlign=middle;resizable=0;points=[];" vertex="1" connectable="0" parent="1rp_JtK8VTmY53sCuVcj-22">
          <mxGeometry x="-0.2201" y="-1" relative="1" as="geometry">
            <mxPoint x="4" y="-2" as="offset" />
          </mxGeometry>
        </mxCell>
        <mxCell id="1rp_JtK8VTmY53sCuVcj-9" value="&lt;font style=&quot;font-size: 8px; color: rgb(0, 153, 0);&quot;&gt;GF.Shipment.POItems.API&lt;br&gt;(New)&lt;/font&gt;" style="rounded=1;whiteSpace=wrap;html=1;fillColor=#ffe6cc;strokeColor=#d79b00;" vertex="1" parent="1">
          <mxGeometry x="260" y="270" width="120" height="60" as="geometry" />
        </mxCell>
        <mxCell id="1rp_JtK8VTmY53sCuVcj-23" style="edgeStyle=orthogonalEdgeStyle;rounded=0;orthogonalLoop=1;jettySize=auto;html=1;entryX=0;entryY=0.5;entryDx=0;entryDy=0;" edge="1" parent="1" source="1rp_JtK8VTmY53sCuVcj-10" target="1rp_JtK8VTmY53sCuVcj-11">
          <mxGeometry relative="1" as="geometry" />
        </mxCell>
        <mxCell id="1rp_JtK8VTmY53sCuVcj-10" value="&lt;font style=&quot;font-size: 8px;&quot;&gt;PO.Gateway.Gf.Bookings.Api&lt;/font&gt;" style="rounded=1;whiteSpace=wrap;html=1;fillColor=#e1d5e7;strokeColor=#9673a6;" vertex="1" parent="1">
          <mxGeometry x="590" y="190" width="120" height="60" as="geometry" />
        </mxCell>
        <mxCell id="1rp_JtK8VTmY53sCuVcj-24" style="edgeStyle=orthogonalEdgeStyle;rounded=0;orthogonalLoop=1;jettySize=auto;html=1;" edge="1" parent="1" source="1rp_JtK8VTmY53sCuVcj-11" target="1rp_JtK8VTmY53sCuVcj-12">
          <mxGeometry relative="1" as="geometry" />
        </mxCell>
        <mxCell id="1rp_JtK8VTmY53sCuVcj-11" value="&lt;font style=&quot;font-size: 8px;&quot;&gt;PO.Bookings.Orchestrator.Api&lt;/font&gt;" style="rounded=1;whiteSpace=wrap;html=1;fillColor=#e1d5e7;strokeColor=#9673a6;" vertex="1" parent="1">
          <mxGeometry x="780" y="190" width="120" height="60" as="geometry" />
        </mxCell>
        <mxCell id="1rp_JtK8VTmY53sCuVcj-12" value="&lt;font style=&quot;font-size: 8px;&quot;&gt;PO.Transactions.Api&lt;/font&gt;" style="rounded=1;whiteSpace=wrap;html=1;fillColor=#e1d5e7;strokeColor=#9673a6;" vertex="1" parent="1">
          <mxGeometry x="1000" y="190" width="120" height="60" as="geometry" />
        </mxCell>
        <mxCell id="1rp_JtK8VTmY53sCuVcj-16" value="&lt;font style=&quot;font-size: 8px;&quot;&gt;Kafka&lt;/font&gt;" style="shape=cylinder3;whiteSpace=wrap;html=1;boundedLbl=1;backgroundOutline=1;size=15;direction=south;fillColor=#1ba1e2;fontColor=#ffffff;strokeColor=#006EAF;" vertex="1" parent="1">
          <mxGeometry x="1020" y="290" width="80" height="60" as="geometry" />
        </mxCell>
        <mxCell id="1rp_JtK8VTmY53sCuVcj-66" style="edgeStyle=orthogonalEdgeStyle;rounded=0;orthogonalLoop=1;jettySize=auto;html=1;entryX=0.5;entryY=0;entryDx=0;entryDy=0;" edge="1" parent="1" source="1rp_JtK8VTmY53sCuVcj-17" target="1rp_JtK8VTmY53sCuVcj-18">
          <mxGeometry relative="1" as="geometry" />
        </mxCell>
        <mxCell id="1rp_JtK8VTmY53sCuVcj-17" value="&lt;font style=&quot;font-size: 8px;&quot;&gt;PO.Transactions.Consumer&lt;/font&gt;" style="rounded=1;whiteSpace=wrap;html=1;fillColor=#e1d5e7;strokeColor=#9673a6;" vertex="1" parent="1">
          <mxGeometry x="827" y="370" width="120" height="60" as="geometry" />
        </mxCell>
        <mxCell id="1rp_JtK8VTmY53sCuVcj-28" style="edgeStyle=orthogonalEdgeStyle;rounded=0;orthogonalLoop=1;jettySize=auto;html=1;" edge="1" parent="1" source="1rp_JtK8VTmY53sCuVcj-18" target="1rp_JtK8VTmY53sCuVcj-20">
          <mxGeometry relative="1" as="geometry" />
        </mxCell>
        <mxCell id="1rp_JtK8VTmY53sCuVcj-18" value="&lt;font style=&quot;font-size: 8px;&quot;&gt;PO.BookingItems.Api&lt;/font&gt;" style="rounded=1;whiteSpace=wrap;html=1;fillColor=#e1d5e7;strokeColor=#9673a6;" vertex="1" parent="1">
          <mxGeometry x="827" y="470" width="120" height="60" as="geometry" />
        </mxCell>
        <mxCell id="1rp_JtK8VTmY53sCuVcj-20" value="&lt;font style=&quot;font-size: 8px;&quot;&gt;PO DB&lt;/font&gt;" style="shape=cylinder3;whiteSpace=wrap;html=1;boundedLbl=1;backgroundOutline=1;size=15;fillColor=#1ba1e2;fontColor=#ffffff;strokeColor=#006EAF;" vertex="1" parent="1">
          <mxGeometry x="857" y="584" width="60" height="80" as="geometry" />
        </mxCell>
        <mxCell id="1rp_JtK8VTmY53sCuVcj-25" style="edgeStyle=orthogonalEdgeStyle;rounded=0;orthogonalLoop=1;jettySize=auto;html=1;entryX=0;entryY=0.5;entryDx=0;entryDy=0;entryPerimeter=0;" edge="1" parent="1" source="1rp_JtK8VTmY53sCuVcj-12" target="1rp_JtK8VTmY53sCuVcj-16">
          <mxGeometry relative="1" as="geometry" />
        </mxCell>
        <mxCell id="1rp_JtK8VTmY53sCuVcj-26" style="edgeStyle=orthogonalEdgeStyle;rounded=0;orthogonalLoop=1;jettySize=auto;html=1;entryX=0.492;entryY=0.064;entryDx=0;entryDy=0;entryPerimeter=0;dashed=1;" edge="1" parent="1" source="1rp_JtK8VTmY53sCuVcj-16" target="1rp_JtK8VTmY53sCuVcj-17">
          <mxGeometry relative="1" as="geometry" />
        </mxCell>
        <mxCell id="1rp_JtK8VTmY53sCuVcj-29" value="&lt;font style=&quot;font-size: 8px;&quot;&gt;GF Business Service&lt;/font&gt;" style="rounded=1;whiteSpace=wrap;html=1;fillColor=#ffe6cc;strokeColor=#d79b00;" vertex="1" parent="1">
          <mxGeometry x="120" y="400" width="120" height="60" as="geometry" />
        </mxCell>
        <mxCell id="1rp_JtK8VTmY53sCuVcj-40" style="edgeStyle=orthogonalEdgeStyle;rounded=0;orthogonalLoop=1;jettySize=auto;html=1;entryX=0;entryY=0.5;entryDx=0;entryDy=0;" edge="1" parent="1" source="1rp_JtK8VTmY53sCuVcj-33" target="1rp_JtK8VTmY53sCuVcj-37">
          <mxGeometry relative="1" as="geometry" />
        </mxCell>
        <mxCell id="1rp_JtK8VTmY53sCuVcj-33" value="&lt;font style=&quot;font-size: 8px;&quot;&gt;SIA&lt;/font&gt;" style="rounded=1;whiteSpace=wrap;html=1;fillColor=#ffe6cc;strokeColor=#d79b00;" vertex="1" parent="1">
          <mxGeometry x="-280" y="120" width="120" height="60" as="geometry" />
        </mxCell>
        <mxCell id="1rp_JtK8VTmY53sCuVcj-41" style="edgeStyle=orthogonalEdgeStyle;rounded=0;orthogonalLoop=1;jettySize=auto;html=1;entryX=0.5;entryY=0;entryDx=0;entryDy=0;startArrow=none;startFill=0;exitX=1;exitY=0.5;exitDx=0;exitDy=0;" edge="1" parent="1" source="1rp_JtK8VTmY53sCuVcj-37" target="1rp_JtK8VTmY53sCuVcj-9">
          <mxGeometry relative="1" as="geometry">
            <Array as="points">
              <mxPoint x="320" y="150" />
            </Array>
          </mxGeometry>
        </mxCell>
        <mxCell id="1rp_JtK8VTmY53sCuVcj-42" value="&lt;font style=&quot;font-size: 8px;&quot;&gt;Read/Write&lt;/font&gt;" style="edgeLabel;html=1;align=center;verticalAlign=middle;resizable=0;points=[];" vertex="1" connectable="0" parent="1rp_JtK8VTmY53sCuVcj-41">
          <mxGeometry x="0.0506" y="1" relative="1" as="geometry">
            <mxPoint x="-97" as="offset" />
          </mxGeometry>
        </mxCell>
        <mxCell id="1rp_JtK8VTmY53sCuVcj-37" value="&lt;font style=&quot;font-size: 8px;&quot;&gt;GF.ShipmentItemAudit.UI.API&lt;/font&gt;" style="rounded=1;whiteSpace=wrap;html=1;fillColor=#ffe6cc;strokeColor=#d79b00;" vertex="1" parent="1">
          <mxGeometry x="-50" y="120" width="120" height="60" as="geometry" />
        </mxCell>
        <mxCell id="1rp_JtK8VTmY53sCuVcj-39" style="edgeStyle=orthogonalEdgeStyle;rounded=0;orthogonalLoop=1;jettySize=auto;html=1;entryX=0;entryY=0.5;entryDx=0;entryDy=0;" edge="1" parent="1" source="1rp_JtK8VTmY53sCuVcj-38" target="1rp_JtK8VTmY53sCuVcj-2">
          <mxGeometry relative="1" as="geometry" />
        </mxCell>
        <mxCell id="1rp_JtK8VTmY53sCuVcj-38" value="&lt;font style=&quot;font-size: 8px;&quot;&gt;Cube UI&lt;/font&gt;" style="rounded=1;whiteSpace=wrap;html=1;fillColor=#ffe6cc;strokeColor=#d79b00;" vertex="1" parent="1">
          <mxGeometry x="-280" y="270" width="120" height="60" as="geometry" />
        </mxCell>
        <mxCell id="1rp_JtK8VTmY53sCuVcj-43" value="&lt;font style=&quot;font-size: 8px;&quot;&gt;Commodity UI(GFS UI)&lt;/font&gt;" style="rounded=1;whiteSpace=wrap;html=1;fillColor=#ffe6cc;strokeColor=#d79b00;" vertex="1" parent="1">
          <mxGeometry x="-280" y="530" width="120" height="60" as="geometry" />
        </mxCell>
        <mxCell id="1rp_JtK8VTmY53sCuVcj-47" value="&lt;font style=&quot;font-size: 8px;&quot;&gt;Express DB&lt;/font&gt;" style="shape=cylinder3;whiteSpace=wrap;html=1;boundedLbl=1;backgroundOutline=1;size=15;fillColor=#1ba1e2;fontColor=#ffffff;strokeColor=#006EAF;" vertex="1" parent="1">
          <mxGeometry x="290" y="520" width="60" height="80" as="geometry" />
        </mxCell>
        <mxCell id="1rp_JtK8VTmY53sCuVcj-48" style="edgeStyle=orthogonalEdgeStyle;rounded=0;orthogonalLoop=1;jettySize=auto;html=1;entryX=0.5;entryY=0;entryDx=0;entryDy=0;entryPerimeter=0;" edge="1" parent="1" source="1rp_JtK8VTmY53sCuVcj-9" target="1rp_JtK8VTmY53sCuVcj-47">
          <mxGeometry relative="1" as="geometry" />
        </mxCell>
        <mxCell id="1rp_JtK8VTmY53sCuVcj-54" value="&lt;font style=&quot;font-size: 8px;&quot;&gt;Set IsPoItem true&lt;/font&gt;" style="edgeLabel;html=1;align=center;verticalAlign=middle;resizable=0;points=[];" vertex="1" connectable="0" parent="1rp_JtK8VTmY53sCuVcj-48">
          <mxGeometry x="-0.7124" relative="1" as="geometry">
            <mxPoint y="-1" as="offset" />
          </mxGeometry>
        </mxCell>
        <mxCell id="1rp_JtK8VTmY53sCuVcj-49" style="edgeStyle=orthogonalEdgeStyle;rounded=0;orthogonalLoop=1;jettySize=auto;html=1;entryX=0;entryY=0.5;entryDx=0;entryDy=0;entryPerimeter=0;" edge="1" parent="1" source="1rp_JtK8VTmY53sCuVcj-43" target="1rp_JtK8VTmY53sCuVcj-47">
          <mxGeometry relative="1" as="geometry" />
        </mxCell>
        <mxCell id="1rp_JtK8VTmY53sCuVcj-57" value="&lt;span style=&quot;font-size: 8px;&quot;&gt;CRUD Commodity&lt;/span&gt;" style="edgeLabel;html=1;align=center;verticalAlign=middle;resizable=0;points=[];" vertex="1" connectable="0" parent="1rp_JtK8VTmY53sCuVcj-49">
          <mxGeometry x="-0.158" y="1" relative="1" as="geometry">
            <mxPoint as="offset" />
          </mxGeometry>
        </mxCell>
        <mxCell id="1rp_JtK8VTmY53sCuVcj-51" style="edgeStyle=orthogonalEdgeStyle;rounded=0;orthogonalLoop=1;jettySize=auto;html=1;entryX=-0.004;entryY=0.604;entryDx=0;entryDy=0;entryPerimeter=0;" edge="1" parent="1" source="1rp_JtK8VTmY53sCuVcj-2" target="1rp_JtK8VTmY53sCuVcj-29">
          <mxGeometry relative="1" as="geometry">
            <Array as="points">
              <mxPoint x="10" y="300" />
              <mxPoint x="10" y="436" />
            </Array>
          </mxGeometry>
        </mxCell>
        <mxCell id="1rp_JtK8VTmY53sCuVcj-52" value="&lt;font style=&quot;font-size: 8px;&quot;&gt;Step 2 Create Shipment&lt;/font&gt;" style="edgeLabel;html=1;align=center;verticalAlign=middle;resizable=0;points=[];" vertex="1" connectable="0" parent="1rp_JtK8VTmY53sCuVcj-51">
          <mxGeometry x="0.0358" y="1" relative="1" as="geometry">
            <mxPoint x="49" y="7" as="offset" />
          </mxGeometry>
        </mxCell>
        <mxCell id="1rp_JtK8VTmY53sCuVcj-58" style="edgeStyle=orthogonalEdgeStyle;rounded=0;orthogonalLoop=1;jettySize=auto;html=1;entryX=0.5;entryY=0;entryDx=0;entryDy=0;entryPerimeter=0;" edge="1" parent="1" source="1rp_JtK8VTmY53sCuVcj-29" target="1rp_JtK8VTmY53sCuVcj-47">
          <mxGeometry relative="1" as="geometry" />
        </mxCell>
        <mxCell id="1rp_JtK8VTmY53sCuVcj-59" value="&lt;font style=&quot;font-size: 8px;&quot;&gt;CRUD Commodity&lt;/font&gt;" style="edgeLabel;html=1;align=center;verticalAlign=middle;resizable=0;points=[];" vertex="1" connectable="0" parent="1rp_JtK8VTmY53sCuVcj-58">
          <mxGeometry x="-0.5519" y="-2" relative="1" as="geometry">
            <mxPoint x="2" y="-4" as="offset" />
          </mxGeometry>
        </mxCell>
        <mxCell id="1rp_JtK8VTmY53sCuVcj-61" value="GF Scope" style="text;html=1;align=center;verticalAlign=middle;whiteSpace=wrap;rounded=0;" vertex="1" parent="1">
          <mxGeometry x="-280" y="70" width="60" height="30" as="geometry" />
        </mxCell>
        <mxCell id="1rp_JtK8VTmY53sCuVcj-63" value="PO Scope" style="text;html=1;align=center;verticalAlign=middle;whiteSpace=wrap;rounded=0;" vertex="1" parent="1">
          <mxGeometry x="480" y="70" width="60" height="30" as="geometry" />
        </mxCell>
        <mxCell id="1rp_JtK8VTmY53sCuVcj-67" value="Pool" style="swimlane;childLayout=stackLayout;resizeParent=1;resizeParentMax=0;startSize=20;horizontal=0;horizontalStack=1;dashed=1;strokeColor=#3399FF;" vertex="1" parent="1">
          <mxGeometry x="-150" y="770" width="1000" height="740" as="geometry" />
        </mxCell>
        <mxCell id="1rp_JtK8VTmY53sCuVcj-68" value="Booking Entry" style="swimlane;startSize=20;fontSize=10;" vertex="1" parent="1rp_JtK8VTmY53sCuVcj-67">
          <mxGeometry x="20" width="150" height="740" as="geometry" />
        </mxCell>
        <mxCell id="1rp_JtK8VTmY53sCuVcj-72" value="Create Booking" style="rounded=1;whiteSpace=wrap;html=1;" vertex="1" parent="1rp_JtK8VTmY53sCuVcj-68">
          <mxGeometry x="25" y="75" width="105" height="50" as="geometry" />
        </mxCell>
        <mxCell id="1rp_JtK8VTmY53sCuVcj-96" value="Create Shipment" style="rounded=1;whiteSpace=wrap;html=1;" vertex="1" parent="1rp_JtK8VTmY53sCuVcj-68">
          <mxGeometry x="22.5" y="349" width="105" height="50" as="geometry" />
        </mxCell>
        <mxCell id="1rp_JtK8VTmY53sCuVcj-69" value="Booking API" style="swimlane;startSize=20;fontSize=10;" vertex="1" parent="1rp_JtK8VTmY53sCuVcj-67">
          <mxGeometry x="170" width="172.5" height="740" as="geometry" />
        </mxCell>
        <mxCell id="1rp_JtK8VTmY53sCuVcj-95" style="edgeStyle=orthogonalEdgeStyle;rounded=0;orthogonalLoop=1;jettySize=auto;html=1;" edge="1" parent="1rp_JtK8VTmY53sCuVcj-69" source="1rp_JtK8VTmY53sCuVcj-73" target="1rp_JtK8VTmY53sCuVcj-83">
          <mxGeometry relative="1" as="geometry" />
        </mxCell>
        <mxCell id="1rp_JtK8VTmY53sCuVcj-73" value="Create Booking" style="whiteSpace=wrap;html=1;rounded=1;" vertex="1" parent="1rp_JtK8VTmY53sCuVcj-69">
          <mxGeometry x="17.5" y="70" width="120" height="60" as="geometry" />
        </mxCell>
        <mxCell id="1rp_JtK8VTmY53sCuVcj-83" value="Other logic" style="whiteSpace=wrap;html=1;rounded=1;arcSize=0;" vertex="1" parent="1rp_JtK8VTmY53sCuVcj-69">
          <mxGeometry x="27.5" y="250" width="100" height="50" as="geometry" />
        </mxCell>
        <mxCell id="1rp_JtK8VTmY53sCuVcj-97" value="Create Shipment" style="whiteSpace=wrap;html=1;rounded=1;" vertex="1" parent="1rp_JtK8VTmY53sCuVcj-69">
          <mxGeometry x="27.5" y="344" width="120" height="60" as="geometry" />
        </mxCell>
        <mxCell id="1rp_JtK8VTmY53sCuVcj-70" value="GF Business SVC" style="swimlane;startSize=20;fontSize=10;" vertex="1" parent="1rp_JtK8VTmY53sCuVcj-67">
          <mxGeometry x="342.5" width="177.5" height="740" as="geometry" />
        </mxCell>
        <mxCell id="1rp_JtK8VTmY53sCuVcj-102" value="" style="edgeStyle=orthogonalEdgeStyle;rounded=0;orthogonalLoop=1;jettySize=auto;html=1;" edge="1" parent="1rp_JtK8VTmY53sCuVcj-70" source="1rp_JtK8VTmY53sCuVcj-99" target="1rp_JtK8VTmY53sCuVcj-101">
          <mxGeometry relative="1" as="geometry" />
        </mxCell>
        <mxCell id="1rp_JtK8VTmY53sCuVcj-99" value="Create Shipment" style="whiteSpace=wrap;html=1;rounded=1;" vertex="1" parent="1rp_JtK8VTmY53sCuVcj-70">
          <mxGeometry x="37.5" y="344" width="120" height="60" as="geometry" />
        </mxCell>
        <mxCell id="1rp_JtK8VTmY53sCuVcj-101" value="Create Commodity&lt;div&gt;(Placeholder)&lt;/div&gt;" style="whiteSpace=wrap;html=1;rounded=1;fillColor=#1ba1e2;fontColor=#ffffff;strokeColor=#006EAF;" vertex="1" parent="1rp_JtK8VTmY53sCuVcj-70">
          <mxGeometry x="37.5" y="450" width="120" height="60" as="geometry" />
        </mxCell>
        <mxCell id="1rp_JtK8VTmY53sCuVcj-71" value="GF.Shipment.POItems.API" style="swimlane;startSize=20;fontSize=10;" vertex="1" parent="1rp_JtK8VTmY53sCuVcj-67">
          <mxGeometry x="520" width="160" height="740" as="geometry" />
        </mxCell>
        <mxCell id="1rp_JtK8VTmY53sCuVcj-103" value="Create PO Commodities" style="whiteSpace=wrap;html=1;rounded=1;fillColor=#e51400;fontColor=#ffffff;strokeColor=#B20000;" vertex="1" parent="1rp_JtK8VTmY53sCuVcj-71">
          <mxGeometry x="20" y="530" width="120" height="60" as="geometry" />
        </mxCell>
        <mxCell id="1rp_JtK8VTmY53sCuVcj-110" value="GF.Commodities.API" style="swimlane;startSize=20;fontSize=10;" vertex="1" parent="1rp_JtK8VTmY53sCuVcj-67">
          <mxGeometry x="680" width="160" height="740" as="geometry" />
        </mxCell>
        <mxCell id="1rp_JtK8VTmY53sCuVcj-113" value="Cancel Placeholder Commodity" style="whiteSpace=wrap;html=1;rounded=1;fillColor=#1ba1e2;fontColor=#ffffff;strokeColor=#006EAF;" vertex="1" parent="1rp_JtK8VTmY53sCuVcj-110">
          <mxGeometry x="30" y="610" width="120" height="60" as="geometry" />
        </mxCell>
        <mxCell id="1rp_JtK8VTmY53sCuVcj-114" value="PO.Gateway.Gf.Bookings.Api" style="swimlane;startSize=20;fontSize=10;" vertex="1" parent="1rp_JtK8VTmY53sCuVcj-67">
          <mxGeometry x="840" width="160" height="740" as="geometry" />
        </mxCell>
        <mxCell id="1rp_JtK8VTmY53sCuVcj-80" value="Batch Create PO item" style="whiteSpace=wrap;html=1;rounded=1;fillColor=#1ba1e2;fontColor=#ffffff;strokeColor=#000000;" vertex="1" parent="1rp_JtK8VTmY53sCuVcj-114">
          <mxGeometry x="20" y="190" width="120" height="60" as="geometry" />
        </mxCell>
        <mxCell id="1rp_JtK8VTmY53sCuVcj-74" value="" style="edgeStyle=orthogonalEdgeStyle;rounded=0;orthogonalLoop=1;jettySize=auto;html=1;" edge="1" parent="1rp_JtK8VTmY53sCuVcj-67" source="1rp_JtK8VTmY53sCuVcj-72" target="1rp_JtK8VTmY53sCuVcj-73">
          <mxGeometry relative="1" as="geometry" />
        </mxCell>
        <mxCell id="1rp_JtK8VTmY53sCuVcj-76" value="" style="edgeStyle=orthogonalEdgeStyle;rounded=0;orthogonalLoop=1;jettySize=auto;html=1;entryX=0.5;entryY=0;entryDx=0;entryDy=0;fillColor=#1ba1e2;strokeColor=#000000;" edge="1" parent="1rp_JtK8VTmY53sCuVcj-67" source="1rp_JtK8VTmY53sCuVcj-73" target="1rp_JtK8VTmY53sCuVcj-80">
          <mxGeometry relative="1" as="geometry">
            <mxPoint x="247.5" y="200.00000000000023" as="targetPoint" />
          </mxGeometry>
        </mxCell>
        <mxCell id="1rp_JtK8VTmY53sCuVcj-98" value="" style="edgeStyle=orthogonalEdgeStyle;rounded=0;orthogonalLoop=1;jettySize=auto;html=1;" edge="1" parent="1rp_JtK8VTmY53sCuVcj-67" source="1rp_JtK8VTmY53sCuVcj-96" target="1rp_JtK8VTmY53sCuVcj-97">
          <mxGeometry relative="1" as="geometry" />
        </mxCell>
        <mxCell id="1rp_JtK8VTmY53sCuVcj-100" value="" style="edgeStyle=orthogonalEdgeStyle;rounded=0;orthogonalLoop=1;jettySize=auto;html=1;" edge="1" parent="1rp_JtK8VTmY53sCuVcj-67" source="1rp_JtK8VTmY53sCuVcj-97" target="1rp_JtK8VTmY53sCuVcj-99">
          <mxGeometry relative="1" as="geometry" />
        </mxCell>
        <mxCell id="1rp_JtK8VTmY53sCuVcj-104" value="" style="edgeStyle=orthogonalEdgeStyle;rounded=0;orthogonalLoop=1;jettySize=auto;html=1;exitX=0.5;exitY=1;exitDx=0;exitDy=0;entryX=0;entryY=0.5;entryDx=0;entryDy=0;strokeColor=#3399FF;" edge="1" parent="1rp_JtK8VTmY53sCuVcj-67" source="1rp_JtK8VTmY53sCuVcj-97" target="1rp_JtK8VTmY53sCuVcj-103">
          <mxGeometry relative="1" as="geometry">
            <Array as="points">
              <mxPoint x="258" y="560" />
            </Array>
          </mxGeometry>
        </mxCell>
        <mxCell id="1rp_JtK8VTmY53sCuVcj-105" value="Create Commodities &amp;amp; Linik PO" style="edgeLabel;html=1;align=center;verticalAlign=middle;resizable=0;points=[];" vertex="1" connectable="0" parent="1rp_JtK8VTmY53sCuVcj-104">
          <mxGeometry x="0.3336" y="-1" relative="1" as="geometry">
            <mxPoint as="offset" />
          </mxGeometry>
        </mxCell>
        <mxCell id="1rp_JtK8VTmY53sCuVcj-107" value="" style="edgeStyle=orthogonalEdgeStyle;rounded=0;orthogonalLoop=1;jettySize=auto;html=1;exitX=0.5;exitY=1;exitDx=0;exitDy=0;entryX=0;entryY=0.5;entryDx=0;entryDy=0;fillColor=#1ba1e2;strokeColor=#006EAF;" edge="1" parent="1rp_JtK8VTmY53sCuVcj-67" source="1rp_JtK8VTmY53sCuVcj-97" target="1rp_JtK8VTmY53sCuVcj-113">
          <mxGeometry relative="1" as="geometry">
            <Array as="points">
              <mxPoint x="258" y="640" />
            </Array>
          </mxGeometry>
        </mxCell>
        <mxCell id="1rp_JtK8VTmY53sCuVcj-109" value="Cancel Business SVC commodity" style="edgeLabel;html=1;align=center;verticalAlign=middle;resizable=0;points=[];" vertex="1" connectable="0" parent="1rp_JtK8VTmY53sCuVcj-107">
          <mxGeometry x="0.4094" relative="1" as="geometry">
            <mxPoint as="offset" />
          </mxGeometry>
        </mxCell>
        <mxCell id="1rp_JtK8VTmY53sCuVcj-122" style="edgeStyle=orthogonalEdgeStyle;rounded=0;orthogonalLoop=1;jettySize=auto;html=1;" edge="1" parent="1" source="1rp_JtK8VTmY53sCuVcj-120" target="1rp_JtK8VTmY53sCuVcj-47">
          <mxGeometry relative="1" as="geometry" />
        </mxCell>
        <mxCell id="1rp_JtK8VTmY53sCuVcj-120" value="&lt;font style=&quot;font-size: 8px;&quot;&gt;Cancel Placeholder Commodity&lt;/font&gt;" style="whiteSpace=wrap;html=1;fillColor=#ffe6cc;strokeColor=#d79b00;rounded=1;" vertex="1" parent="1">
          <mxGeometry x="-130" y="460" width="120" height="60" as="geometry" />
        </mxCell>
      </root>
    </mxGraphModel>
  </diagram>
</mxfile>
